RBDS05runT45_grf
version=1
nRows=34
nColumns=19
inDegrees=no
endheader
time	ground_force_r_vx	ground_force_r_vy	ground_force_r_vz	ground_force_r_px	ground_force_r_py	ground_force_r_pz	ground_force_r_mx	ground_force_r_my	ground_force_r_mz	ground_force_l_vx	ground_force_l_vy	ground_force_l_vz	ground_force_l_px	ground_force_l_py	ground_force_l_pz	ground_force_l_mx	ground_force_l_my	ground_force_l_mz
     22.49800000	      0.00000000	      0.00000000	      0.00000000	      0.00000000	      0.00000000	      0.00000000	      0.00000000	      0.00000000	      0.00000000	    201.88187842	    886.45650399	     27.05734949	      2.03806775	      0.00000000	      0.92629535	      0.00000000	     11.06759987	     -0.00000000
     22.49900000	      0.00000000	      0.00000000	      0.00000000	      0.00000000	      0.00000000	      0.00000000	      0.00000000	      0.00000000	      0.00000000	    203.43904764	    865.37190843	     26.37733098	      2.03461660	      0.00000000	      0.92632410	      0.00000000	     10.90367181	     -0.00000000
     22.50000000	      0.00000000	      0.00000000	      0.00000000	      0.00000000	      0.00000000	      0.00000000	      0.00000000	      0.00000000	      0.00000000	    204.99621686	    844.28731286	     25.69731247	      2.03116545	      0.00000000	      0.92635285	      0.00000000	     10.73974375	     -0.00000000
     22.50100000	      0.00000000	      0.00000000	      0.00000000	      0.00000000	      0.00000000	      0.00000000	      0.00000000	      0.00000000	      0.00000000	    205.60889561	    822.85775053	     25.08939098	      2.02788246	      0.00000000	      0.92635891	      0.00000000	     10.59070673	     -0.00000000
     22.50200000	      0.00000000	      0.00000000	      0.00000000	      0.00000000	      0.00000000	      0.00000000	      0.00000000	      0.00000000	      0.00000000	    206.22157436	    801.42818820	     24.48146950	      2.02459947	      0.00000000	      0.92636497	      0.00000000	     10.44166971	     -0.00000000
     22.50300000	      0.00000000	      0.00000000	      0.00000000	      0.00000000	      0.00000000	      0.00000000	      0.00000000	      0.00000000	      0.00000000	    206.83425310	    779.99862586	     23.87354801	      2.02131647	      0.00000000	      0.92637103	      0.00000000	     10.29263269	     -0.00000000
     22.50400000	      0.00000000	      0.00000000	      0.00000000	      0.00000000	      0.00000000	      0.00000000	      0.00000000	      0.00000000	      0.00000000	    206.83752269	    758.48369985	     23.32067874	      2.01815674	      0.00000000	      0.92636084	      0.00000000	     10.15578721	     -0.00000000
     22.50500000	      0.00000000	      0.00000000	      0.00000000	      0.00000000	      0.00000000	      0.00000000	      0.00000000	      0.00000000	      0.00000000	    206.53608769	    736.92609200	     22.79533558	      2.01505863	      0.00000000	      0.92634252	      0.00000000	     10.02503750	     -0.00000000
     22.50600000	      0.00000000	      0.00000000	      0.00000000	      0.00000000	      0.00000000	      0.00000000	      0.00000000	      0.00000000	      0.00000000	    206.23465269	    715.36848414	     22.26999242	      2.01196051	      0.00000000	      0.92632420	      0.00000000	      9.89428778	     -0.00000000
     22.50700000	      0.00000000	      0.00000000	      0.00000000	      0.00000000	      0.00000000	      0.00000000	      0.00000000	      0.00000000	      0.00000000	    205.64612343	    693.84271522	     21.77449901	      2.00892885	      0.00000000	      0.92629749	      0.00000000	      9.77050350	     -0.00000000
     22.50800000	      0.00000000	      0.00000000	      0.00000000	      0.00000000	      0.00000000	      0.00000000	      0.00000000	      0.00000000	      0.00000000	    204.48340567	    672.38062418	     21.33870513	      2.00603006	      0.00000000	      0.92625397	      0.00000000	      9.66065005	     -0.00000000
     22.50900000	      0.00000000	      0.00000000	      0.00000000	      0.00000000	      0.00000000	      0.00000000	      0.00000000	      0.00000000	      0.00000000	    203.32068790	    650.91853313	     20.90291125	      2.00313127	      0.00000000	      0.92621045	      0.00000000	      9.55079661	     -0.00000000
     22.51000000	      0.00000000	      0.00000000	      0.00000000	      0.00000000	      0.00000000	      0.00000000	      0.00000000	      0.00000000	      0.00000000	    202.15797013	    629.45644208	     20.46711737	      2.00023249	      0.00000000	      0.92616694	      0.00000000	      9.44094316	     -0.00000000
     22.51100000	      0.00000000	      0.00000000	      0.00000000	      0.00000000	      0.00000000	      0.00000000	      0.00000000	      0.00000000	      0.00000000	    200.20815063	    608.31503895	     20.12421379	      1.99754475	      0.00000000	      0.92609837	      0.00000000	      9.35372322	     -0.00000000
     22.51200000	      0.00000000	      0.00000000	      0.00000000	      0.00000000	      0.00000000	      0.00000000	      0.00000000	      0.00000000	      0.00000000	    198.25833113	    587.17363581	     19.78131021	      1.99485702	      0.00000000	      0.92602980	      0.00000000	      9.26650328	     -0.00000000
     22.51300000	      0.00000000	      0.00000000	      0.00000000	      0.00000000	      0.00000000	      0.00000000	      0.00000000	      0.00000000	      0.00000000	    196.30851163	    566.03223268	     19.43840664	      1.99216928	      0.00000000	      0.92596124	      0.00000000	      9.17928335	     -0.00000000
     22.51400000	      0.00000000	      0.00000000	      0.00000000	      0.00000000	      0.00000000	      0.00000000	      0.00000000	      0.00000000	      0.00000000	    193.89634160	    545.25219073	     19.15726540	      1.98962800	      0.00000000	      0.92587674	      0.00000000	      9.10769366	     -0.00000000
     22.51500000	      0.00000000	      0.00000000	      0.00000000	      0.00000000	      0.00000000	      0.00000000	      0.00000000	      0.00000000	      0.00000000	    191.25299632	    524.65282939	     18.90700532	      1.98715995	      0.00000000	      0.92578428	      0.00000000	      9.04391910	     -0.00000000
     22.51600000	      0.00000000	      0.00000000	      0.00000000	      0.00000000	      0.00000000	      0.00000000	      0.00000000	      0.00000000	      0.00000000	    188.60965103	    504.05346804	     18.65674525	      1.98469190	      0.00000000	      0.92569181	      0.00000000	      8.98014454	     -0.00000000
     22.51700000	      0.00000000	      0.00000000	      0.00000000	      0.00000000	      0.00000000	      0.00000000	      0.00000000	      0.00000000	      0.00000000	    185.77185278	    483.70542695	     18.43615527	      1.98229883	      0.00000000	      0.92559210	      0.00000000	      8.92414133	     -0.00000000
     22.51800000	      0.00000000	      0.00000000	      0.00000000	      0.00000000	      0.00000000	      0.00000000	      0.00000000	      0.00000000	      0.00000000	    182.54514862	    463.86002636	     18.27490549	      1.98005571	      0.00000000	      0.92547789	      0.00000000	      8.88368082	     -0.00000000
     22.51900000	      0.00000000	      0.00000000	      0.00000000	      0.00000000	      0.00000000	      0.00000000	      0.00000000	      0.00000000	      0.00000000	    179.31844446	    444.01462577	     18.11365571	      1.97781258	      0.00000000	      0.92536367	      0.00000000	      8.84322031	     -0.00000000
     22.52000000	      0.00000000	      0.00000000	      0.00000000	      0.00000000	      0.00000000	      0.00000000	      0.00000000	      0.00000000	      0.00000000	    176.09174029	    424.16922518	     17.95240592	      1.97556946	      0.00000000	      0.92524946	      0.00000000	      8.80275979	     -0.00000000
     22.52100000	      0.00000000	      0.00000000	      0.00000000	      0.00000000	      0.00000000	      0.00000000	      0.00000000	      0.00000000	      0.00000000	    172.40483381	    405.27468533	     17.87349547	      1.97355293	      0.00000000	      0.92511657	      0.00000000	      8.78456156	     -0.00000000
     22.52200000	      0.00000000	      0.00000000	      0.00000000	      0.00000000	      0.00000000	      0.00000000	      0.00000000	      0.00000000	      0.00000000	    168.71792732	    386.38014548	     17.79458502	      1.97153641	      0.00000000	      0.92498367	      0.00000000	      8.76636333	     -0.00000000
     22.52300000	      0.00000000	      0.00000000	      0.00000000	      0.00000000	      0.00000000	      0.00000000	      0.00000000	      0.00000000	      0.00000000	    165.03102083	    367.48560563	     17.71567456	      1.96951988	      0.00000000	      0.92485078	      0.00000000	      8.74816510	     -0.00000000
     22.52400000	      0.00000000	      0.00000000	      0.00000000	      0.00000000	      0.00000000	      0.00000000	      0.00000000	      0.00000000	      0.00000000	    161.12521369	    349.34268093	     17.68550201	      1.96765310	      0.00000000	      0.92470800	      0.00000000	      8.74353833	     -0.00000000
     22.52500000	      0.00000000	      0.00000000	      0.00000000	      0.00000000	      0.00000000	      0.00000000	      0.00000000	      0.00000000	      0.00000000	    157.10995621	    331.57556379	     17.67969841	      1.96586120	      0.00000000	      0.92456028	      0.00000000	      8.74569729	     -0.00000000
     22.52600000	      0.00000000	      0.00000000	      0.00000000	      0.00000000	      0.00000000	      0.00000000	      0.00000000	      0.00000000	      0.00000000	    153.09469874	    313.80844665	     17.67389481	      1.96406929	      0.00000000	      0.92441257	      0.00000000	      8.74785625	     -0.00000000
     22.52700000	      0.00000000	      0.00000000	      0.00000000	      0.00000000	      0.00000000	      0.00000000	      0.00000000	      0.00000000	      0.00000000	    149.01522833	    296.46760075	     17.68872170	      1.96235042	      0.00000000	      0.92426140	      0.00000000	      8.75591908	     -0.00000000
     22.52800000	      0.00000000	      0.00000000	      0.00000000	      0.00000000	      0.00000000	      0.00000000	      0.00000000	      0.00000000	      0.00000000	    144.80733203	    279.97929734	     17.74480958	      1.96077763	      0.00000000	      0.92410334	      0.00000000	      8.77578968	     -0.00000000
     22.52900000	      0.00000000	      0.00000000	      0.00000000	      0.00000000	      0.00000000	      0.00000000	      0.00000000	      0.00000000	      0.00000000	    140.59943574	    263.49099393	     17.80089746	      1.95920483	      0.00000000	      0.92394528	      0.00000000	      8.79566028	     -0.00000000
     22.53000000	      0.00000000	      0.00000000	      0.00000000	      0.00000000	      0.00000000	      0.00000000	      0.00000000	      0.00000000	      0.00000000	    136.39153944	    247.00269051	     17.85698533	      1.95763203	      0.00000000	      0.92378721	      0.00000000	      8.81553088	     -0.00000000
     22.53100000	      0.00000000	      0.00000000	      0.00000000	      0.00000000	      0.00000000	      0.00000000	      0.00000000	      0.00000000	      0.00000000	    132.12540464	    231.91527183	     17.96241854	      1.95626954	      0.00000000	      0.92362366	      0.00000000	      8.84988389	     -0.00000000
